<svg width="80" height="80" fill="none" xmlns="http://www.w3.org/2000/svg"><path d="M67.867 19.722c1.136-2.365 1.71-4.246 1.71-5.618C69.578 8.532 65.046 4 59.475 4c-3.3 0-6.235 1.59-8.08 4.044a34.8 34.8 0 00-11.06-1.792c-9.316 0-18.074 3.627-24.66 10.214C9.088 23.053 5.46 31.811 5.46 41.126s3.628 18.073 10.214 24.66C22.26 72.372 31.018 76 40.333 76s18.073-3.628 24.66-10.214c6.587-6.587 10.214-15.345 10.214-24.66a34.95 34.95 0 00-7.34-21.404zM36.768 8.638a41.187 41.187 0 00-8.954 10.083 39.674 39.674 0 01-7.556-3.39 32.35 32.35 0 0116.51-6.693zM28.816 21.32c1.954.554 3.949.97 5.963 1.235 1.455.191 2.922.305 4.392.344v17.284H23.59c.14-5.997 1.63-11.93 4.33-17.216.285-.559.586-1.106.895-1.647zm-11.592-3.303c.41-.41.828-.806 1.255-1.19a41.747 41.747 0 008.193 3.825c-.242.434-.477.873-.704 1.317-2.857 5.594-4.429 11.872-4.571 18.214H7.667c.235-8.376 3.607-16.216 9.557-22.166zM7.678 42.376h13.726a42.326 42.326 0 004.2 17.172 41.434 41.434 0 00-8.634 4.427c-5.719-5.844-8.988-13.46-9.292-21.6zm10.916 23.151a39.236 39.236 0 018.027-4.017 41.144 41.144 0 0010.147 12.104 32.385 32.385 0 01-18.174-8.087zm20.577 7.183c-4.304-3.276-7.8-7.268-10.427-11.906A40.048 40.048 0 0139.17 59.13v13.58zm0-15.774a42.188 42.188 0 00-11.477 1.896c-2.51-5.08-3.917-10.735-4.096-16.456h15.573v14.56zm0-36.232a40.043 40.043 0 01-4.105-.323 39.8 39.8 0 01-5.06-1.008c2.45-3.763 5.517-7.055 9.165-9.832v11.163zm33.828 19.479H59.27a42.523 42.523 0 00-1.249-9.313c.34.467.552.748.58.784l.874 1.156.874-1.156a101.57 101.57 0 004.56-6.659 67.17 67.17 0 001.84-3.113A32.762 32.762 0 0173 40.182zM59.474 6.193c4.362 0 7.91 3.549 7.91 7.91 0 3.386-5.094 11.142-7.91 15.042-2.816-3.9-7.911-11.654-7.911-15.041 0-4.362 3.549-7.911 7.91-7.911zm-9.22 3.786a10.039 10.039 0 00-.88 4 41.612 41.612 0 00-5.477-5.342c2.163.235 4.288.684 6.357 1.342zm-8.89-.537c3.706 2.799 6.82 6.124 9.3 9.933a40.506 40.506 0 01-9.3 1.33V9.442zm0 13.458c3.55-.088 7.09-.617 10.489-1.575.308.54.608 1.085.892 1.642 2.7 5.286 4.19 11.22 4.331 17.216H41.364V22.9zm0 19.476h15.704c-.179 5.721-1.584 11.375-4.095 16.456a42.213 42.213 0 00-11.61-1.9V42.376zm0 16.75c3.623.09 7.167.657 10.559 1.678-2.654 4.685-6.195 8.71-10.56 12.005V59.126zm2.534 14.488A41.144 41.144 0 0054.045 61.51a39.217 39.217 0 018.027 4.017 32.382 32.382 0 01-18.174 8.087zm19.798-9.64a41.43 41.43 0 00-8.633-4.426 42.327 42.327 0 004.2-17.172h13.726c-.304 8.14-3.574 15.755-9.293 21.599z" fill="#000"/><path d="M59.474 7.378a6.734 6.734 0 00-6.726 6.726 6.734 6.734 0 006.726 6.726 6.734 6.734 0 006.726-6.726 6.734 6.734 0 00-6.726-6.726zm0 11.259a4.538 4.538 0 01-4.533-4.533c0-2.5 2.033-4.533 4.533-4.533 2.5 0 4.533 2.033 4.533 4.533 0 2.5-2.034 4.533-4.533 4.533z" fill="#000"/><path d="M60.661 12.99v-2.193H58.47v2.194h-2.34v2.192h2.34v2.34h2.192v-2.34h2.193v-2.192h-2.193zm-.145 8.919h-2.193v2.193h2.193v-2.193z" fill="#000"/></svg>