<svg width="81" height="80" fill="none" xmlns="http://www.w3.org/2000/svg"><path d="M31.572 70.084v7.477h17.522v-7.477H31.572zm15.069 5.023H34.026v-2.57H46.64v2.57zM21.526 28.645v22.546H59.14V28.645H21.526zm2.454 20.091V31.1h13.815v1.457h-3.763v2.454h10.143v-2.454H40.25V31.1h16.437v17.637H23.98zm1.285 7.534a3.743 3.743 0 00-3.739 3.74 3.743 3.743 0 003.739 3.738 3.743 3.743 0 003.738-3.739 3.743 3.743 0 00-3.738-3.738zm0 5.024a1.286 1.286 0 01-1.285-1.285 1.286 1.286 0 111.285 1.285zm30.137-5.024a3.743 3.743 0 00-3.739 3.74 3.743 3.743 0 003.739 3.738 3.743 3.743 0 003.738-3.739 3.743 3.743 0 00-3.738-3.738zm0 5.024a1.286 1.286 0 111.285-1.285c0 .709-.577 1.285-1.285 1.285zm-5.009.056H30.27v2.454h20.123V61.35zm0-3.763H30.27v2.454h20.123v-2.454zm0-3.763H30.27v2.454h20.123v-2.454z" fill="#000"/><path d="M49.123 42.45a4.982 4.982 0 00-4.994 4.994h2.454c0-1.473 1.14-2.54 2.54-2.54 1.401 0 2.54 1.067 2.54 2.54h2.454a4.982 4.982 0 00-4.994-4.994zM25.198 73.947v3.599h-5.072v-3.6h-2.454V80h9.98v-6.053h-2.454zm35.174 0v3.599H55.3v-3.6h-2.454V80h9.98v-6.053h-2.454z" fill="#000"/><path d="M71.697 49.935v-12.5H64.22v7.555h-1.313V24.878H17.76V44.99h-1.313v-7.555H8.969v12.5h7.477v-2.491h1.313V66.42h-2.704v6.217h15.214v-2.454H17.51v-1.309h45.48v1.309H50.392v2.454h15.051V66.42h-2.536V47.444h1.313v2.491h7.477zm-5.023-10.046h2.57v7.592h-2.57V39.89zm-52.682 7.592h-2.569V39.89h2.57v7.592zm46.461 18.94h-40.24V27.332h40.24v39.09z" fill="#000"/><path d="M13.746 62.658v-8.834h-2.454v11.288h5.235v-2.454h-2.781zm53.006-8.834v8.834h-2.617v2.454h5.071V53.825h-2.454zM11.292 3.763v32.393h2.454V6.216h53.006v29.94h2.454V3.763H11.292zM69.206 0H11.292v2.454h57.914V0z" fill="#000"/><path d="M24.053 21.268h-2.617v2.454h2.617v-2.454zm4.909 0h-2.454v2.454h2.454v-2.454zm25.194 0h-2.454v2.454h2.454v-2.454zm5.071 0H56.61v2.454h2.617v-2.454zM36.487 44.99h-9.98v2.454h9.98V44.99zm3.927 0h-2.618v2.454h2.618V44.99z" fill="#000"/></svg>