<svg width="81" height="80" fill="none" xmlns="http://www.w3.org/2000/svg"><g clip-path="url(#clip0_19_515)" fill="#000"><path d="M7.02 59.389H4.415v2.444h2.607V59.39z"/><path d="M60.513 55.57H41.055l-7.566-5.044h4.7a3.722 3.722 0 003.718-3.717 3.722 3.722 0 00-3.718-3.718H15.726v2.444h22.463a1.275 1.275 0 010 2.547H25.735V51.8h2.444v-1.274h.904l11.232 7.488h20.198c.779 0 1.413.633 1.413 1.412 0 .72-.54 1.324-1.257 1.403l-18.78 2.087V60.53h-2.445v2.102L15.905 55.57h-1.552V43.096H.667V65.58h13.686v-7.566h1.194l25.025 7.508 20.367-2.263a3.852 3.852 0 003.43-3.833 3.86 3.86 0 00-3.856-3.856zM11.91 63.136h-8.8V45.54h8.799v17.596z"/><path d="M18.263 14.42v27.372h2.444V40.49h21.181V23.218h-21.18v-6.354h57.515v2.607h-14.99v2.444h14.99v36.17h-12.71v2.445h15.153V14.42H18.264zm21.181 11.242v12.383H20.707V25.662h18.737z"/><path d="M30.646 28.106h-7.495v2.444h7.495v-2.444zm-5.051 5.051h-2.444V35.6h2.444v-2.444zm3.748 0h-2.444V35.6h2.444v-2.444zm3.747 0h-2.444V35.6h2.444v-2.444zm3.748 0h-2.444V35.6h2.444v-2.444zm20.07 10.935l-4.422 2.948 1.356 2.033 1.896-1.264v5.226h2.444v-5.157l1.792 1.195 1.355-2.033-4.421-2.948zm9.983 0L62.47 47.04l1.356 2.033 1.852-1.234v5.196h2.444v-5.186l1.836 1.224 1.356-2.033-4.422-2.948z"/></g><defs><clipPath id="clip0_19_515"><path fill="#fff" transform="translate(.667)" d="M0 0h80v80H0z"/></clipPath></defs></svg>