<svg width="40" height="40" viewBox="0 0 40 40" fill="none" xmlns="http://www.w3.org/2000/svg">
<path opacity="0.6" d="M21.225 20L28.525 12.7C28.925 12.3 28.925 11.65 28.525 11.2C28.125 10.8 27.475 10.8 27.025 11.2L19.725 18.5L12.425 11.2C12.025 10.8 11.375 10.8 10.925 11.2C10.525 11.6 10.525 12.25 10.925 12.7L18.225 20L10.925 27.3C10.525 27.7 10.525 28.35 10.925 28.8C11.125 29 11.425 29.1 11.675 29.1C11.925 29.1 12.225 29 12.425 28.8L19.725 21.5L27.025 28.8C27.225 29 27.475 29.1 27.775 29.1C28.025 29.1 28.325 29 28.525 28.8C28.925 28.4 28.925 27.75 28.525 27.3L21.225 20Z" fill="white"/>
</svg>
