<svg width="16" height="16" viewBox="0 0 16 16" fill="none" xmlns="http://www.w3.org/2000/svg">
<g id="filter-svgrepo-com (2) 1">
<g id="style=linear">
<g id="filter">
<path id="vector" d="M12 1.3335H4C2.89543 1.3335 2 2.22893 2 3.3335V4.36294C2 4.95996 2.26671 5.52576 2.72723 5.90569L4.90913 7.70576C5.36965 8.0857 5.63637 8.6515 5.63637 9.2485V13.4162C5.63637 14.4993 6.85953 15.1305 7.74233 14.5028L9.80293 13.0377C10.1547 12.7876 10.3637 12.3827 10.3637 11.951V9.2485C10.3637 8.6515 10.6303 8.0857 11.0909 7.70576L13.2727 5.90569C13.7333 5.52576 14 4.95996 14 4.36294V3.3335C14 2.22893 13.1046 1.3335 12 1.3335Z" stroke="white" stroke-width="1.3"/>
</g>
</g>
</g>
</svg>
