<svg width="16" height="16" viewBox="0 0 16 16" fill="none" xmlns="http://www.w3.org/2000/svg">
<path d="M14.6664 3.00016C14.6664 3.17697 14.5962 3.34654 14.4712 3.47157C14.3462 3.59659 14.1766 3.66683 13.9998 3.66683H7.99978C7.82297 3.66683 7.6534 3.59659 7.52838 3.47157C7.40335 3.34654 7.33312 3.17697 7.33312 3.00016C7.33312 2.82335 7.40335 2.65378 7.52838 2.52876C7.6534 2.40373 7.82297 2.3335 7.99978 2.3335H13.9998C14.1766 2.3335 14.3462 2.40373 14.4712 2.52876C14.5962 2.65378 14.6664 2.82335 14.6664 3.00016ZM13.9998 5.66683H9.33312C9.15631 5.66683 8.98674 5.73707 8.86171 5.86209C8.73669 5.98712 8.66645 6.15668 8.66645 6.3335C8.66645 6.51031 8.73669 6.67988 8.86171 6.8049C8.98674 6.92992 9.15631 7.00016 9.33312 7.00016H13.9998C14.1766 7.00016 14.3462 6.92992 14.4712 6.8049C14.5962 6.67988 14.6664 6.51031 14.6664 6.3335C14.6664 6.15668 14.5962 5.98712 14.4712 5.86209C14.3462 5.73707 14.1766 5.66683 13.9998 5.66683ZM13.9998 9.00016H10.6665C10.4896 9.00016 10.3201 9.0704 10.195 9.19542C10.07 9.32045 9.99978 9.49002 9.99978 9.66683C9.99978 9.84364 10.07 10.0132 10.195 10.1382C10.3201 10.2633 10.4896 10.3335 10.6665 10.3335H13.9998C14.1766 10.3335 14.3462 10.2633 14.4712 10.1382C14.5962 10.0132 14.6664 9.84364 14.6664 9.66683C14.6664 9.49002 14.5962 9.32045 14.4712 9.19542C14.3462 9.0704 14.1766 9.00016 13.9998 9.00016ZM13.9998 12.3335H11.9998C11.823 12.3335 11.6534 12.4037 11.5284 12.5288C11.4034 12.6538 11.3331 12.8234 11.3331 13.0002C11.3331 13.177 11.4034 13.3465 11.5284 13.4716C11.6534 13.5966 11.823 13.6668 11.9998 13.6668H13.9998C14.1766 13.6668 14.3462 13.5966 14.4712 13.4716C14.5962 13.3465 14.6664 13.177 14.6664 13.0002C14.6664 12.8234 14.5962 12.6538 14.4712 12.5288C14.3462 12.4037 14.1766 12.3335 13.9998 12.3335ZM3.99978 1.3335C3.82297 1.3335 3.6534 1.40373 3.52838 1.52876C3.40335 1.65378 3.33312 1.82335 3.33312 2.00016V12.3908L2.47112 11.5288C2.34538 11.4074 2.17698 11.3402 2.00218 11.3417C1.82738 11.3432 1.66018 11.4133 1.53657 11.537C1.41297 11.6606 1.34285 11.8278 1.34133 12.0026C1.33981 12.1774 1.40701 12.3458 1.52845 12.4715L3.52845 14.4715C3.59038 14.5336 3.66394 14.5828 3.74494 14.6164C3.82593 14.6501 3.91276 14.6674 4.00045 14.6674C4.08814 14.6674 4.17497 14.6501 4.25596 14.6164C4.33696 14.5828 4.41052 14.5336 4.47245 14.4715L6.47245 12.4715C6.59389 12.3458 6.66108 12.1774 6.65957 12.0026C6.65805 11.8278 6.58793 11.6606 6.46433 11.537C6.34072 11.4133 6.17352 11.3432 5.99872 11.3417C5.82392 11.3402 5.65552 11.4074 5.52978 11.5288L4.66645 12.3908V2.00016C4.66645 1.82335 4.59621 1.65378 4.47119 1.52876C4.34616 1.40373 4.17659 1.3335 3.99978 1.3335Z" fill="#0E74CE"/>
</svg>
