<svg width="32" height="40" viewBox="0 0 32 40" fill="none" xmlns="http://www.w3.org/2000/svg">
<g clip-path="url(#clip0_1_1884)">
<g opacity="0.6" filter="url(#filter0_f_1_1884)">
<path fill-rule="evenodd" clip-rule="evenodd" d="M18.9738 25.0958C13.5567 24.0202 8.77668 25.1053 8.29731 27.5195C8.03653 28.8328 9.34486 30.2797 10.8802 31.4892C12.4267 32.7073 14.304 33.7644 15.4289 34.3561C16.3695 34.851 17.6534 35.1059 18.7117 35.008C19.9773 34.8909 22.1161 34.6313 24.0107 34.0964C25.8916 33.5653 27.6535 32.728 27.9143 31.4147C28.3937 29.0005 24.3909 26.1715 18.9738 25.0958ZM15.9261 29.0343C16.0327 28.4978 17.0949 28.2566 18.2987 28.4957C19.5025 28.7347 20.392 29.3634 20.2855 29.8999C20.1789 30.4364 19.1168 30.6775 17.9129 30.4385C16.7091 30.1994 15.8196 29.5708 15.9261 29.0343ZM18.4916 27.5243C16.084 27.0462 13.9595 27.5285 13.7465 28.6015C13.5334 29.6744 15.3124 30.9318 17.72 31.4099C20.1276 31.8879 22.2521 31.4056 22.4651 30.3327C22.6782 29.2597 20.8991 28.0023 18.4916 27.5243Z" fill="url(#paint0_linear_1_1884)"/>
</g>
<path fill-rule="evenodd" clip-rule="evenodd" d="M15 0.333252C6.71573 0.333252 0 7.04899 0 15.3333C0 19.8399 2.34763 23.7591 4.95987 26.7454C7.59102 29.7533 10.662 32.0124 12.4898 33.2284C14.0183 34.2454 15.9817 34.2454 17.5102 33.2284C19.338 32.0124 22.409 29.7533 25.0402 26.7454C27.6523 23.7591 30 19.8399 30 15.3333C30 7.04899 23.2843 0.333252 15 0.333252ZM11.6667 15.3333C11.6667 13.4923 13.159 11.9999 15 11.9999C16.841 11.9999 18.3333 13.4923 18.3333 15.3333C18.3333 17.1743 16.841 18.6666 15 18.6666C13.159 18.6666 11.6667 17.1743 11.6667 15.3333ZM15 8.66659C11.3181 8.66659 8.33333 11.6514 8.33333 15.3333C8.33333 19.0151 11.3181 21.9999 15 21.9999C18.6818 21.9999 21.6667 19.0151 21.6667 15.3333C21.6667 11.6514 18.6818 8.66659 15 8.66659Z" fill="#FF3232"/>
</g>
<defs>
<filter id="filter0_f_1_1884" x="4.26392" y="20.6804" width="27.6895" height="18.3481" filterUnits="userSpaceOnUse" color-interpolation-filters="sRGB">
<feFlood flood-opacity="0" result="BackgroundImageFix"/>
<feBlend mode="normal" in="SourceGraphic" in2="BackgroundImageFix" result="shape"/>
<feGaussianBlur stdDeviation="2" result="effect1_foregroundBlur_1_1884"/>
</filter>
<linearGradient id="paint0_linear_1_1884" x1="18" y1="34.5" x2="28" y2="30.5" gradientUnits="userSpaceOnUse">
<stop/>
<stop offset="1" stop-opacity="0"/>
</linearGradient>
<clipPath id="clip0_1_1884">
<rect width="32" height="40" fill="white"/>
</clipPath>
</defs>
</svg>
